<mxfile host="65bd71144e">
    <diagram id="fkomY9Qylxee1qR4k6_M" name="ページ1">
        <mxGraphModel dx="1182" dy="872" grid="1" gridSize="10" guides="1" tooltips="1" connect="1" arrows="1" fold="1" page="1" pageScale="1" pageWidth="827" pageHeight="1169" math="1" shadow="0">
            <root>
                <mxCell id="0"/>
                <mxCell id="1" parent="0"/>
                <mxCell id="3" value="A" style="verticalLabelPosition=middle;shadow=0;dashed=0;align=center;html=1;verticalAlign=middle;strokeWidth=1;shape=ellipse;aspect=fixed;fontSize=50;" vertex="1" parent="1">
                    <mxGeometry x="449" y="280" width="60" height="60" as="geometry"/>
                </mxCell>
                <mxCell id="4" value="V" style="verticalLabelPosition=middle;shadow=0;dashed=0;align=center;html=1;verticalAlign=middle;strokeWidth=1;shape=ellipse;aspect=fixed;fontSize=50;" vertex="1" parent="1">
                    <mxGeometry x="570" y="390" width="60" height="60" as="geometry"/>
                </mxCell>
                <mxCell id="5" value="" style="pointerEvents=1;fillColor=strokeColor;verticalLabelPosition=bottom;shadow=0;dashed=0;align=center;html=1;verticalAlign=top;shape=mxgraph.electrical.diodes.diode;rotation=90;strokeWidth=2;" vertex="1" parent="1">
                    <mxGeometry x="443.5" y="390" width="71" height="45" as="geometry"/>
                </mxCell>
                <mxCell id="6" value="" style="verticalLabelPosition=bottom;shadow=0;dashed=0;align=center;fillColor=#000000;html=1;verticalAlign=top;strokeWidth=2;shape=mxgraph.electrical.miscellaneous.monocell_battery;rotation=-90;" vertex="1" parent="1">
                    <mxGeometry x="150" y="340" width="100" height="60" as="geometry"/>
                </mxCell>
                <mxCell id="7" value="" style="endArrow=none;html=1;exitX=0;exitY=0.5;exitDx=0;exitDy=0;exitPerimeter=0;strokeWidth=2;rounded=0;" edge="1" parent="1" source="6">
                    <mxGeometry width="50" height="50" relative="1" as="geometry">
                        <mxPoint x="310" y="410" as="sourcePoint"/>
                        <mxPoint x="480" y="480" as="targetPoint"/>
                        <Array as="points">
                            <mxPoint x="200" y="480"/>
                        </Array>
                    </mxGeometry>
                </mxCell>
                <mxCell id="8" value="" style="pointerEvents=1;verticalLabelPosition=bottom;shadow=0;dashed=0;align=center;html=1;verticalAlign=top;shape=mxgraph.electrical.resistors.resistor_1;rotation=0;strokeWidth=2;fontSize=2;" vertex="1" parent="1">
                    <mxGeometry x="280" y="210" width="100" height="20" as="geometry"/>
                </mxCell>
                <mxCell id="9" value="" style="pointerEvents=1;verticalLabelPosition=bottom;shadow=0;dashed=0;align=center;html=1;verticalAlign=top;shape=mxgraph.electrical.resistors.resistor_1;rotation=0;strokeWidth=2;" vertex="1" parent="1">
                    <mxGeometry x="280" y="250" width="100" height="20" as="geometry"/>
                </mxCell>
                <mxCell id="12" value="" style="endArrow=none;html=1;rounded=0;strokeWidth=2;entryX=0;entryY=0.5;entryDx=0;entryDy=0;entryPerimeter=0;exitX=0;exitY=0.5;exitDx=0;exitDy=0;exitPerimeter=0;" edge="1" parent="1" source="9" target="8">
                    <mxGeometry width="50" height="50" relative="1" as="geometry">
                        <mxPoint x="400" y="520" as="sourcePoint"/>
                        <mxPoint x="200" y="520" as="targetPoint"/>
                        <Array as="points">
                            <mxPoint x="240" y="260"/>
                            <mxPoint x="240" y="220"/>
                        </Array>
                    </mxGeometry>
                </mxCell>
                <mxCell id="13" value="" style="endArrow=none;html=1;rounded=0;strokeWidth=2;exitX=1;exitY=0.5;exitDx=0;exitDy=0;exitPerimeter=0;" edge="1" parent="1" source="6">
                    <mxGeometry width="50" height="50" relative="1" as="geometry">
                        <mxPoint x="410" y="360" as="sourcePoint"/>
                        <mxPoint x="240" y="240" as="targetPoint"/>
                        <Array as="points">
                            <mxPoint x="200" y="240"/>
                        </Array>
                    </mxGeometry>
                </mxCell>
                <mxCell id="14" value="" style="endArrow=none;html=1;rounded=0;strokeWidth=2;exitX=1;exitY=0.5;exitDx=0;exitDy=0;exitPerimeter=0;entryX=1;entryY=0.5;entryDx=0;entryDy=0;entryPerimeter=0;" edge="1" parent="1" source="8" target="9">
                    <mxGeometry width="50" height="50" relative="1" as="geometry">
                        <mxPoint x="400" y="130" as="sourcePoint"/>
                        <mxPoint x="460" y="310" as="targetPoint"/>
                        <Array as="points">
                            <mxPoint x="440" y="220"/>
                            <mxPoint x="440" y="260"/>
                        </Array>
                    </mxGeometry>
                </mxCell>
                <mxCell id="19" value="" style="endArrow=none;html=1;rounded=0;strokeWidth=2;entryX=0.5;entryY=1;entryDx=0;entryDy=0;exitX=1;exitY=0.5;exitDx=0;exitDy=0;exitPerimeter=0;" edge="1" parent="1" source="5" target="4">
                    <mxGeometry width="50" height="50" relative="1" as="geometry">
                        <mxPoint x="290" y="370" as="sourcePoint"/>
                        <mxPoint x="700" y="480" as="targetPoint"/>
                        <Array as="points">
                            <mxPoint x="480" y="480"/>
                            <mxPoint x="600" y="480"/>
                        </Array>
                    </mxGeometry>
                </mxCell>
                <mxCell id="21" value="" style="endArrow=none;html=1;rounded=0;strokeWidth=2;entryX=0.5;entryY=1;entryDx=0;entryDy=0;exitX=0;exitY=0.5;exitDx=0;exitDy=0;exitPerimeter=0;" edge="1" parent="1" source="5" target="3">
                    <mxGeometry width="50" height="50" relative="1" as="geometry">
                        <mxPoint x="400" y="370" as="sourcePoint"/>
                        <mxPoint x="450" y="320" as="targetPoint"/>
                    </mxGeometry>
                </mxCell>
                <mxCell id="22" value="" style="endArrow=none;html=1;rounded=0;strokeWidth=2;entryX=0.5;entryY=0;entryDx=0;entryDy=0;" edge="1" parent="1" target="3">
                    <mxGeometry width="50" height="50" relative="1" as="geometry">
                        <mxPoint x="440" y="240" as="sourcePoint"/>
                        <mxPoint x="600" y="240" as="targetPoint"/>
                        <Array as="points">
                            <mxPoint x="479" y="240"/>
                        </Array>
                    </mxGeometry>
                </mxCell>
                <mxCell id="23" value="" style="endArrow=none;html=1;rounded=0;strokeWidth=2;entryX=0.5;entryY=0;entryDx=0;entryDy=0;" edge="1" parent="1" target="4">
                    <mxGeometry width="50" height="50" relative="1" as="geometry">
                        <mxPoint x="480" y="360" as="sourcePoint"/>
                        <mxPoint x="650" y="360" as="targetPoint"/>
                        <Array as="points">
                            <mxPoint x="600" y="360"/>
                        </Array>
                    </mxGeometry>
                </mxCell>
                <mxCell id="24" value="A" style="verticalLabelPosition=middle;shadow=0;dashed=0;align=center;html=1;verticalAlign=middle;strokeWidth=1;shape=ellipse;aspect=fixed;fontSize=50;" vertex="1" parent="1">
                    <mxGeometry x="449" y="800" width="60" height="60" as="geometry"/>
                </mxCell>
                <mxCell id="25" value="V" style="verticalLabelPosition=middle;shadow=0;dashed=0;align=center;html=1;verticalAlign=middle;strokeWidth=1;shape=ellipse;aspect=fixed;fontSize=50;" vertex="1" parent="1">
                    <mxGeometry x="570" y="910" width="60" height="60" as="geometry"/>
                </mxCell>
                <mxCell id="26" value="" style="pointerEvents=1;fillColor=strokeColor;verticalLabelPosition=bottom;shadow=0;dashed=0;align=center;html=1;verticalAlign=top;shape=mxgraph.electrical.diodes.diode;rotation=-90;strokeWidth=2;" vertex="1" parent="1">
                    <mxGeometry x="443.5" y="910" width="71" height="45" as="geometry"/>
                </mxCell>
                <mxCell id="27" value="" style="verticalLabelPosition=bottom;shadow=0;dashed=0;align=center;fillColor=#000000;html=1;verticalAlign=top;strokeWidth=2;shape=mxgraph.electrical.miscellaneous.monocell_battery;rotation=-90;" vertex="1" parent="1">
                    <mxGeometry x="150" y="860" width="100" height="60" as="geometry"/>
                </mxCell>
                <mxCell id="28" value="" style="endArrow=none;html=1;exitX=0;exitY=0.5;exitDx=0;exitDy=0;exitPerimeter=0;strokeWidth=2;rounded=0;" edge="1" parent="1" source="27">
                    <mxGeometry width="50" height="50" relative="1" as="geometry">
                        <mxPoint x="310" y="930" as="sourcePoint"/>
                        <mxPoint x="480" y="1000" as="targetPoint"/>
                        <Array as="points">
                            <mxPoint x="200" y="1000"/>
                        </Array>
                    </mxGeometry>
                </mxCell>
                <mxCell id="29" value="" style="pointerEvents=1;verticalLabelPosition=bottom;shadow=0;dashed=0;align=center;html=1;verticalAlign=top;shape=mxgraph.electrical.resistors.resistor_1;rotation=0;strokeWidth=2;" vertex="1" parent="1">
                    <mxGeometry x="280" y="730" width="100" height="20" as="geometry"/>
                </mxCell>
                <mxCell id="30" value="" style="pointerEvents=1;verticalLabelPosition=bottom;shadow=0;dashed=0;align=center;html=1;verticalAlign=top;shape=mxgraph.electrical.resistors.resistor_1;rotation=0;strokeWidth=2;" vertex="1" parent="1">
                    <mxGeometry x="280" y="770" width="100" height="20" as="geometry"/>
                </mxCell>
                <mxCell id="31" value="" style="endArrow=none;html=1;rounded=0;strokeWidth=2;entryX=0;entryY=0.5;entryDx=0;entryDy=0;entryPerimeter=0;exitX=0;exitY=0.5;exitDx=0;exitDy=0;exitPerimeter=0;" edge="1" parent="1" source="30" target="29">
                    <mxGeometry width="50" height="50" relative="1" as="geometry">
                        <mxPoint x="400" y="1040" as="sourcePoint"/>
                        <mxPoint x="200" y="1040" as="targetPoint"/>
                        <Array as="points">
                            <mxPoint x="240" y="780"/>
                            <mxPoint x="240" y="740"/>
                        </Array>
                    </mxGeometry>
                </mxCell>
                <mxCell id="32" value="" style="endArrow=none;html=1;rounded=0;strokeWidth=2;exitX=1;exitY=0.5;exitDx=0;exitDy=0;exitPerimeter=0;" edge="1" parent="1" source="27">
                    <mxGeometry width="50" height="50" relative="1" as="geometry">
                        <mxPoint x="410" y="880" as="sourcePoint"/>
                        <mxPoint x="240" y="760" as="targetPoint"/>
                        <Array as="points">
                            <mxPoint x="200" y="760"/>
                        </Array>
                    </mxGeometry>
                </mxCell>
                <mxCell id="33" value="" style="endArrow=none;html=1;rounded=0;strokeWidth=2;exitX=1;exitY=0.5;exitDx=0;exitDy=0;exitPerimeter=0;entryX=1;entryY=0.5;entryDx=0;entryDy=0;entryPerimeter=0;" edge="1" parent="1" source="29" target="30">
                    <mxGeometry width="50" height="50" relative="1" as="geometry">
                        <mxPoint x="400" y="650" as="sourcePoint"/>
                        <mxPoint x="460" y="830" as="targetPoint"/>
                        <Array as="points">
                            <mxPoint x="440" y="740"/>
                            <mxPoint x="440" y="780"/>
                        </Array>
                    </mxGeometry>
                </mxCell>
                <mxCell id="34" value="" style="endArrow=none;html=1;rounded=0;strokeWidth=2;entryX=0.5;entryY=1;entryDx=0;entryDy=0;exitX=1;exitY=0.5;exitDx=0;exitDy=0;exitPerimeter=0;" edge="1" parent="1" source="26" target="25">
                    <mxGeometry width="50" height="50" relative="1" as="geometry">
                        <mxPoint x="290" y="890" as="sourcePoint"/>
                        <mxPoint x="700" y="1000" as="targetPoint"/>
                        <Array as="points">
                            <mxPoint x="480" y="1000"/>
                            <mxPoint x="600" y="1000"/>
                        </Array>
                    </mxGeometry>
                </mxCell>
                <mxCell id="35" value="" style="endArrow=none;html=1;rounded=0;strokeWidth=2;entryX=0.5;entryY=1;entryDx=0;entryDy=0;exitX=0;exitY=0.5;exitDx=0;exitDy=0;exitPerimeter=0;" edge="1" parent="1" source="26" target="24">
                    <mxGeometry width="50" height="50" relative="1" as="geometry">
                        <mxPoint x="400" y="890" as="sourcePoint"/>
                        <mxPoint x="450" y="840" as="targetPoint"/>
                    </mxGeometry>
                </mxCell>
                <mxCell id="36" value="" style="endArrow=none;html=1;rounded=0;strokeWidth=2;entryX=0.5;entryY=0;entryDx=0;entryDy=0;" edge="1" parent="1" target="24">
                    <mxGeometry width="50" height="50" relative="1" as="geometry">
                        <mxPoint x="440" y="760" as="sourcePoint"/>
                        <mxPoint x="600" y="760" as="targetPoint"/>
                        <Array as="points">
                            <mxPoint x="479" y="760"/>
                        </Array>
                    </mxGeometry>
                </mxCell>
                <mxCell id="37" value="" style="endArrow=none;html=1;rounded=0;strokeWidth=2;entryX=0.5;entryY=0;entryDx=0;entryDy=0;" edge="1" parent="1" target="25">
                    <mxGeometry width="50" height="50" relative="1" as="geometry">
                        <mxPoint x="480" y="760" as="sourcePoint"/>
                        <mxPoint x="650" y="880" as="targetPoint"/>
                        <Array as="points">
                            <mxPoint x="600" y="760"/>
                        </Array>
                    </mxGeometry>
                </mxCell>
                <mxCell id="38" value="`R_1=10[\Omega]`" style="text;html=1;align=center;verticalAlign=middle;resizable=0;points=[];autosize=1;strokeColor=none;fillColor=none;strokeWidth=23;fontSize=15;" vertex="1" parent="1">
                    <mxGeometry x="260" y="180" width="140" height="20" as="geometry"/>
                </mxCell>
                <mxCell id="39" value="" style="endArrow=classic;html=1;rounded=0;strokeWidth=2;" edge="1" parent="1">
                    <mxGeometry width="50" height="50" relative="1" as="geometry">
                        <mxPoint x="520" y="240" as="sourcePoint"/>
                        <mxPoint x="520" y="280" as="targetPoint"/>
                    </mxGeometry>
                </mxCell>
                <mxCell id="40" value="" style="endArrow=classic;html=1;rounded=0;strokeWidth=2;" edge="1" parent="1">
                    <mxGeometry width="50" height="50" relative="1" as="geometry">
                        <mxPoint x="650" y="480" as="sourcePoint"/>
                        <mxPoint x="650" y="360" as="targetPoint"/>
                    </mxGeometry>
                </mxCell>
                <mxCell id="43" value="" style="endArrow=none;dashed=1;html=1;rounded=0;strokeWidth=2;" edge="1" parent="1">
                    <mxGeometry width="50" height="50" relative="1" as="geometry">
                        <mxPoint x="610" y="360" as="sourcePoint"/>
                        <mxPoint x="680" y="360" as="targetPoint"/>
                    </mxGeometry>
                </mxCell>
                <mxCell id="44" value="" style="endArrow=none;dashed=1;html=1;rounded=0;strokeWidth=2;" edge="1" parent="1">
                    <mxGeometry width="50" height="50" relative="1" as="geometry">
                        <mxPoint x="600" y="480" as="sourcePoint"/>
                        <mxPoint x="680" y="480" as="targetPoint"/>
                    </mxGeometry>
                </mxCell>
                <mxCell id="45" value="`R_2=10[\Omega]`" style="text;html=1;align=center;verticalAlign=middle;resizable=0;points=[];autosize=1;strokeColor=none;fillColor=none;strokeWidth=0;fontSize=15;" vertex="1" parent="1">
                    <mxGeometry x="260" y="280" width="140" height="20" as="geometry"/>
                </mxCell>
                <mxCell id="46" value="`I_D`" style="text;html=1;align=center;verticalAlign=middle;resizable=0;points=[];autosize=1;strokeColor=none;fillColor=none;" vertex="1" parent="1">
                    <mxGeometry x="520" y="250" width="40" height="20" as="geometry"/>
                </mxCell>
                <mxCell id="47" value="`V_D`" style="text;html=1;align=center;verticalAlign=middle;resizable=0;points=[];autosize=1;strokeColor=none;fillColor=none;" vertex="1" parent="1">
                    <mxGeometry x="650" y="410" width="50" height="20" as="geometry"/>
                </mxCell>
                <mxCell id="48" value="`R_1=10[\Omega]`" style="text;html=1;align=center;verticalAlign=middle;resizable=0;points=[];autosize=1;strokeColor=none;fillColor=none;" vertex="1" parent="1">
                    <mxGeometry x="280" y="700" width="120" height="20" as="geometry"/>
                </mxCell>
                <mxCell id="49" value="`R_1=10[\Omega]`" style="text;html=1;align=center;verticalAlign=middle;resizable=0;points=[];autosize=1;strokeColor=none;fillColor=none;" vertex="1" parent="1">
                    <mxGeometry x="280" y="800" width="120" height="20" as="geometry"/>
                </mxCell>
                <mxCell id="50" value="`I_D`" style="text;html=1;align=center;verticalAlign=middle;resizable=0;points=[];autosize=1;strokeColor=none;fillColor=none;" vertex="1" parent="1">
                    <mxGeometry x="514.5" y="780" width="40" height="20" as="geometry"/>
                </mxCell>
                <mxCell id="51" value="`V_D`" style="text;html=1;align=center;verticalAlign=middle;resizable=0;points=[];autosize=1;strokeColor=none;fillColor=none;" vertex="1" parent="1">
                    <mxGeometry x="650" y="870" width="50" height="20" as="geometry"/>
                </mxCell>
                <mxCell id="52" value="" style="endArrow=classic;html=1;rounded=0;strokeWidth=2;" edge="1" parent="1">
                    <mxGeometry width="50" height="50" relative="1" as="geometry">
                        <mxPoint x="520" y="770" as="sourcePoint"/>
                        <mxPoint x="520" y="820" as="targetPoint"/>
                    </mxGeometry>
                </mxCell>
                <mxCell id="53" value="" style="endArrow=none;dashed=1;html=1;rounded=0;strokeWidth=2;" edge="1" parent="1">
                    <mxGeometry width="50" height="50" relative="1" as="geometry">
                        <mxPoint x="600" y="760" as="sourcePoint"/>
                        <mxPoint x="680" y="760" as="targetPoint"/>
                    </mxGeometry>
                </mxCell>
                <mxCell id="54" value="" style="endArrow=none;dashed=1;html=1;rounded=0;strokeWidth=2;" edge="1" parent="1">
                    <mxGeometry width="50" height="50" relative="1" as="geometry">
                        <mxPoint x="600" y="1000" as="sourcePoint"/>
                        <mxPoint x="680" y="1000" as="targetPoint"/>
                    </mxGeometry>
                </mxCell>
                <mxCell id="55" value="" style="endArrow=classic;html=1;rounded=0;strokeWidth=2;" edge="1" parent="1">
                    <mxGeometry width="50" height="50" relative="1" as="geometry">
                        <mxPoint x="654.41" y="1000" as="sourcePoint"/>
                        <mxPoint x="654.41" y="760" as="targetPoint"/>
                    </mxGeometry>
                </mxCell>
                <mxCell id="56" value="`D`" style="text;html=1;align=center;verticalAlign=middle;resizable=0;points=[];autosize=1;strokeColor=none;fillColor=none;" vertex="1" parent="1">
                    <mxGeometry x="410" y="400" width="30" height="20" as="geometry"/>
                </mxCell>
                <mxCell id="57" value="`D`" style="text;html=1;align=center;verticalAlign=middle;resizable=0;points=[];autosize=1;strokeColor=none;fillColor=none;" vertex="1" parent="1">
                    <mxGeometry x="410" y="920" width="30" height="20" as="geometry"/>
                </mxCell>
                <mxCell id="58" value="`E`" style="text;html=1;align=center;verticalAlign=middle;resizable=0;points=[];autosize=1;strokeColor=none;fillColor=none;" vertex="1" parent="1">
                    <mxGeometry x="130" y="880" width="30" height="20" as="geometry"/>
                </mxCell>
                <mxCell id="59" value="`E`" style="text;html=1;align=center;verticalAlign=middle;resizable=0;points=[];autosize=1;strokeColor=none;fillColor=none;strokeWidth=2;fontSize=15;" vertex="1" parent="1">
                    <mxGeometry x="125" y="360" width="40" height="20" as="geometry"/>
                </mxCell>
                <mxCell id="109" value="A" style="verticalLabelPosition=middle;shadow=0;dashed=0;align=center;html=1;verticalAlign=middle;strokeWidth=1;shape=ellipse;aspect=fixed;fontSize=50;" vertex="1" parent="1">
                    <mxGeometry x="1199" y="380" width="60" height="60" as="geometry"/>
                </mxCell>
                <mxCell id="111" value="" style="pointerEvents=1;fillColor=strokeColor;verticalLabelPosition=bottom;shadow=0;dashed=0;align=center;html=1;verticalAlign=top;shape=mxgraph.electrical.diodes.diode;rotation=-90;strokeWidth=2;" vertex="1" parent="1">
                    <mxGeometry x="1193.5" y="490" width="71" height="45" as="geometry"/>
                </mxCell>
                <mxCell id="112" value="" style="verticalLabelPosition=bottom;shadow=0;dashed=0;align=center;fillColor=#000000;html=1;verticalAlign=top;strokeWidth=2;shape=mxgraph.electrical.miscellaneous.monocell_battery;rotation=-90;" vertex="1" parent="1">
                    <mxGeometry x="900" y="440" width="100" height="60" as="geometry"/>
                </mxCell>
                <mxCell id="113" value="" style="endArrow=none;html=1;exitX=0;exitY=0.5;exitDx=0;exitDy=0;exitPerimeter=0;strokeWidth=2;rounded=0;" edge="1" parent="1" source="112">
                    <mxGeometry width="50" height="50" relative="1" as="geometry">
                        <mxPoint x="1060" y="510" as="sourcePoint"/>
                        <mxPoint x="1230.0000000000002" y="580.0000000000002" as="targetPoint"/>
                        <Array as="points">
                            <mxPoint x="950" y="580"/>
                        </Array>
                    </mxGeometry>
                </mxCell>
                <mxCell id="115" value="" style="pointerEvents=1;verticalLabelPosition=bottom;shadow=0;dashed=0;align=center;html=1;verticalAlign=top;shape=mxgraph.electrical.resistors.resistor_1;rotation=0;strokeWidth=2;" vertex="1" parent="1">
                    <mxGeometry x="1030" y="330" width="100" height="20" as="geometry"/>
                </mxCell>
                <mxCell id="117" value="" style="endArrow=none;html=1;rounded=0;strokeWidth=2;exitX=1;exitY=0.5;exitDx=0;exitDy=0;exitPerimeter=0;entryX=0;entryY=0.5;entryDx=0;entryDy=0;entryPerimeter=0;" edge="1" parent="1" source="112" target="115">
                    <mxGeometry width="50" height="50" relative="1" as="geometry">
                        <mxPoint x="1160" y="460" as="sourcePoint"/>
                        <mxPoint x="990" y="340" as="targetPoint"/>
                        <Array as="points">
                            <mxPoint x="950" y="340"/>
                        </Array>
                    </mxGeometry>
                </mxCell>
                <mxCell id="119" value="" style="endArrow=none;html=1;rounded=0;strokeWidth=2;entryX=1;entryY=0.5;entryDx=0;entryDy=0;exitX=1;exitY=0.5;exitDx=0;exitDy=0;exitPerimeter=0;entryPerimeter=0;" edge="1" parent="1" source="111" target="135">
                    <mxGeometry width="50" height="50" relative="1" as="geometry">
                        <mxPoint x="1040" y="470" as="sourcePoint"/>
                        <mxPoint x="1350" y="530" as="targetPoint"/>
                        <Array as="points">
                            <mxPoint x="1230" y="580"/>
                            <mxPoint x="1320" y="580"/>
                        </Array>
                    </mxGeometry>
                </mxCell>
                <mxCell id="120" value="" style="endArrow=none;html=1;rounded=0;strokeWidth=2;entryX=0.5;entryY=1;entryDx=0;entryDy=0;exitX=0;exitY=0.5;exitDx=0;exitDy=0;exitPerimeter=0;" edge="1" parent="1" source="111" target="109">
                    <mxGeometry width="50" height="50" relative="1" as="geometry">
                        <mxPoint x="1150" y="470" as="sourcePoint"/>
                        <mxPoint x="1200" y="420" as="targetPoint"/>
                    </mxGeometry>
                </mxCell>
                <mxCell id="121" value="" style="endArrow=none;html=1;rounded=0;strokeWidth=2;entryX=0.5;entryY=0;entryDx=0;entryDy=0;exitX=1;exitY=0.5;exitDx=0;exitDy=0;exitPerimeter=0;" edge="1" parent="1" target="109" source="115">
                    <mxGeometry width="50" height="50" relative="1" as="geometry">
                        <mxPoint x="1190" y="340" as="sourcePoint"/>
                        <mxPoint x="1350" y="340" as="targetPoint"/>
                        <Array as="points">
                            <mxPoint x="1229" y="340"/>
                        </Array>
                    </mxGeometry>
                </mxCell>
                <mxCell id="122" value="" style="endArrow=none;html=1;rounded=0;strokeWidth=2;entryX=0;entryY=0.5;entryDx=0;entryDy=0;entryPerimeter=0;" edge="1" parent="1" target="135">
                    <mxGeometry width="50" height="50" relative="1" as="geometry">
                        <mxPoint x="1230.0000000000002" y="340" as="sourcePoint"/>
                        <mxPoint x="1350" y="380" as="targetPoint"/>
                        <Array as="points">
                            <mxPoint x="1320" y="340"/>
                        </Array>
                    </mxGeometry>
                </mxCell>
                <mxCell id="123" value="`R_1=300[\Omega]`" style="text;html=1;align=center;verticalAlign=middle;resizable=0;points=[];autosize=1;strokeColor=none;fillColor=none;" vertex="1" parent="1">
                    <mxGeometry x="1020" y="300" width="120" height="20" as="geometry"/>
                </mxCell>
                <mxCell id="125" value="`I_D`" style="text;html=1;align=center;verticalAlign=middle;resizable=0;points=[];autosize=1;strokeColor=none;fillColor=none;" vertex="1" parent="1">
                    <mxGeometry x="1264.5" y="360" width="40" height="20" as="geometry"/>
                </mxCell>
                <mxCell id="126" value="`V_L`" style="text;html=1;align=center;verticalAlign=middle;resizable=0;points=[];autosize=1;strokeColor=none;fillColor=none;" vertex="1" parent="1">
                    <mxGeometry x="1350" y="435" width="50" height="20" as="geometry"/>
                </mxCell>
                <mxCell id="127" value="" style="endArrow=classic;html=1;rounded=0;strokeWidth=2;" edge="1" parent="1">
                    <mxGeometry width="50" height="50" relative="1" as="geometry">
                        <mxPoint x="1270.0000000000002" y="350" as="sourcePoint"/>
                        <mxPoint x="1270.0000000000002" y="400" as="targetPoint"/>
                    </mxGeometry>
                </mxCell>
                <mxCell id="130" value="" style="endArrow=classic;html=1;rounded=0;strokeWidth=2;" edge="1" parent="1">
                    <mxGeometry width="50" height="50" relative="1" as="geometry">
                        <mxPoint x="1360" y="480" as="sourcePoint"/>
                        <mxPoint x="1360" y="400" as="targetPoint"/>
                    </mxGeometry>
                </mxCell>
                <mxCell id="131" value="`D`" style="text;html=1;align=center;verticalAlign=middle;resizable=0;points=[];autosize=1;strokeColor=none;fillColor=none;" vertex="1" parent="1">
                    <mxGeometry x="1160" y="500" width="30" height="20" as="geometry"/>
                </mxCell>
                <mxCell id="132" value="`E`" style="text;html=1;align=center;verticalAlign=middle;resizable=0;points=[];autosize=1;strokeColor=none;fillColor=none;" vertex="1" parent="1">
                    <mxGeometry x="880" y="460" width="30" height="20" as="geometry"/>
                </mxCell>
                <mxCell id="135" value="" style="pointerEvents=1;verticalLabelPosition=bottom;shadow=0;dashed=0;align=center;html=1;verticalAlign=top;shape=mxgraph.electrical.resistors.resistor_1;strokeWidth=2;rotation=90;" vertex="1" parent="1">
                    <mxGeometry x="1270" y="430" width="100" height="20" as="geometry"/>
                </mxCell>
                <mxCell id="136" value="V" style="verticalLabelPosition=middle;shadow=0;dashed=0;align=center;html=1;verticalAlign=middle;strokeWidth=1;shape=ellipse;aspect=fixed;fontSize=50;" vertex="1" parent="1">
                    <mxGeometry x="1410" y="490" width="60" height="60" as="geometry"/>
                </mxCell>
                <mxCell id="138" value="" style="endArrow=none;html=1;rounded=0;strokeWidth=2;entryX=0.5;entryY=0;entryDx=0;entryDy=0;" edge="1" parent="1" target="136">
                    <mxGeometry width="50" height="50" relative="1" as="geometry">
                        <mxPoint x="1320" y="340" as="sourcePoint"/>
                        <mxPoint x="1440" y="470" as="targetPoint"/>
                        <Array as="points">
                            <mxPoint x="1440" y="340"/>
                        </Array>
                    </mxGeometry>
                </mxCell>
                <mxCell id="139" value="" style="endArrow=none;html=1;rounded=0;strokeWidth=2;entryX=0.5;entryY=1;entryDx=0;entryDy=0;" edge="1" parent="1" target="136">
                    <mxGeometry width="50" height="50" relative="1" as="geometry">
                        <mxPoint x="1320" y="580" as="sourcePoint"/>
                        <mxPoint x="1460" y="440" as="targetPoint"/>
                        <Array as="points">
                            <mxPoint x="1440" y="580"/>
                        </Array>
                    </mxGeometry>
                </mxCell>
                <mxCell id="140" value="`R_L=1.0[k\Omega]`" style="text;html=1;align=center;verticalAlign=middle;resizable=0;points=[];autosize=1;strokeColor=none;fillColor=none;" vertex="1" parent="1">
                    <mxGeometry x="1304.5" y="370" width="120" height="20" as="geometry"/>
                </mxCell>
                <mxCell id="141" value="" style="endArrow=none;dashed=1;html=1;rounded=0;strokeWidth=2;" edge="1" parent="1">
                    <mxGeometry width="50" height="50" relative="1" as="geometry">
                        <mxPoint x="1320" y="400" as="sourcePoint"/>
                        <mxPoint x="1380" y="400" as="targetPoint"/>
                    </mxGeometry>
                </mxCell>
                <mxCell id="142" value="" style="endArrow=none;dashed=1;html=1;rounded=0;strokeWidth=2;" edge="1" parent="1">
                    <mxGeometry width="50" height="50" relative="1" as="geometry">
                        <mxPoint x="1320" y="480" as="sourcePoint"/>
                        <mxPoint x="1370" y="480" as="targetPoint"/>
                    </mxGeometry>
                </mxCell>
            </root>
        </mxGraphModel>
    </diagram>
</mxfile>